<svg width="627" height="154" viewBox="0 0 627 154" fill="none" xmlns="http://www.w3.org/2000/svg">
<path d="M200.135 108.024C184.158 108.024 172.483 96.7585 172.483 80.6793C172.483 64.6002 184.158 53.2321 200.135 53.2321C216.214 53.2321 227.787 64.6002 227.787 80.6793C227.787 96.7585 216.214 108.024 200.135 108.024ZM200.135 95.6319C208.84 95.6319 214.78 89.2822 214.78 80.6793C214.78 71.9741 208.84 65.7268 200.135 65.7268C191.532 65.7268 185.49 71.9741 185.49 80.6793C185.49 89.2822 191.532 95.6319 200.135 95.6319ZM239.353 78.5286C239.353 62.4495 250.106 53.2321 264.854 53.2321C279.499 53.2321 290.355 62.4495 290.355 78.5286V107H277.553V78.8359C277.553 70.3354 272.125 65.7268 264.854 65.7268C257.582 65.7268 252.154 70.3354 252.154 78.8359V107H239.353V78.5286ZM355.67 90.6136C351.778 102.801 341.434 108.024 329.144 108.024C313.27 108.024 301.902 96.6561 301.902 80.6793C301.902 64.4978 313.577 53.2321 329.759 53.2321C345.326 53.2321 355.977 63.8833 355.977 78.3238C355.977 80.4745 355.772 82.7276 355.26 85.0832H317.264C315.83 85.0832 315.113 85.8001 315.113 87.0291C315.113 91.945 321.361 96.8609 329.656 96.8609C335.084 96.8609 340.819 95.2223 343.073 90.6136H355.67ZM329.963 64.0881C321.975 64.0881 316.137 68.2871 314.806 75.2513H341.844C342.868 75.2513 343.482 74.6369 343.482 73.6127C343.482 68.9016 338.157 64.0881 329.963 64.0881ZM396.752 108.024C390.3 108.024 383.746 105.259 380.264 100.548V129.531H367.462V80.6793C367.462 64.9074 379.444 53.2321 395.319 53.2321C411.193 53.2321 423.073 64.805 423.073 80.6793C423.073 96.4513 411.5 108.024 396.752 108.024ZM380.468 80.6793C380.468 89.1798 386.921 95.6319 395.319 95.6319C403.614 95.6319 410.066 89.1798 410.066 80.6793C410.066 72.1789 403.614 65.7268 395.319 65.7268C386.921 65.7268 380.468 72.1789 380.468 80.6793ZM459.873 108.024C443.896 108.024 432.221 96.7585 432.221 80.6793C432.221 64.6002 443.896 53.2321 459.873 53.2321C475.952 53.2321 487.525 64.6002 487.525 80.6793C487.525 96.7585 475.952 108.024 459.873 108.024ZM459.873 95.6319C468.578 95.6319 474.518 89.2822 474.518 80.6793C474.518 71.9741 468.578 65.7268 459.873 65.7268C451.27 65.7268 445.228 71.9741 445.228 80.6793C445.228 89.2822 451.27 95.6319 459.873 95.6319ZM518.959 94.0957L526.845 63.1664C528.484 56.2022 532.58 53.437 537.906 53.437C543.436 53.437 547.328 56.0997 548.967 63.1664L556.853 94.0957C557.058 94.5054 557.262 94.8126 557.672 94.8126C558.082 94.8126 558.389 94.5054 558.491 94.0957L568.938 54.2563H582.149L569.143 98.2947C566.889 105.976 562.69 107.819 557.672 107.819C552.756 107.819 548.557 105.464 546.816 98.2947L538.52 67.1606C538.418 66.6485 538.111 66.4437 537.701 66.4437C537.291 66.4437 536.984 66.6485 536.882 67.1606L528.791 98.2947C527.05 105.669 523.056 107.819 518.14 107.819C512.507 107.819 508.41 105.669 506.465 98.2947L494.072 54.2563H507.489L517.423 94.0957C517.525 94.6078 517.833 94.8126 518.242 94.8126C518.55 94.8126 518.857 94.6078 518.959 94.0957ZM618.137 54.2563H624.077V66.8533H618.137C609.534 66.8533 603.696 72.8958 603.696 81.9083V107H590.894V81.9083C590.894 62.3471 601.648 54.2563 618.137 54.2563Z" fill="white"/>
<path d="M406.074 135.098C398.975 135.098 395.354 131.974 395.354 126.97V126.757H399.188V127.325C399.188 130.164 400.856 131.584 406.074 131.584C410.617 131.584 412.215 130.59 412.215 128.354C412.215 126.295 411.008 125.514 407.991 124.946L402.169 123.988C398.158 123.278 395.319 121.432 395.319 117.528C395.319 114.084 398.158 110.606 405.541 110.606C412.499 110.606 415.658 114.084 415.658 118.734V118.947H411.86V118.486C411.86 115.575 410.12 114.12 405.186 114.12C400.856 114.12 399.152 115.185 399.152 117.315C399.152 119.373 400.359 120.048 403.163 120.651L408.949 121.645C413.706 122.497 416.048 124.662 416.048 128.141C416.048 131.761 413.102 135.098 406.074 135.098ZM427.786 135.098C421.929 135.098 417.989 131.371 417.989 125.94C417.989 120.438 421.929 116.747 427.786 116.747C433.678 116.747 437.618 120.438 437.618 125.94C437.618 131.371 433.678 135.098 427.786 135.098ZM427.786 131.691C432.081 131.691 433.856 129.667 433.856 125.94C433.856 122.178 432.081 120.119 427.786 120.119C423.526 120.119 421.751 122.178 421.751 125.94C421.751 129.667 423.526 131.691 427.786 131.691ZM444.234 134.743H440.4V110.961H444.234V134.743ZM452.966 135.098C449.31 135.098 447.003 133.394 447.003 130.484C447.003 127.75 449.203 126.331 452.682 125.94L460.704 125.088V124.059C460.704 121.148 459.426 120.119 456.054 120.119C452.789 120.119 451.191 121.184 451.191 123.775V123.917H447.393V123.775C447.393 119.764 450.73 116.747 456.338 116.747C461.947 116.747 464.467 119.799 464.467 124.023V134.743H460.953V130.342H460.704C459.781 133.323 456.977 135.098 452.966 135.098ZM450.836 130.235C450.836 131.655 451.795 132.329 453.995 132.329C458.006 132.329 460.704 130.839 460.704 127.36L453.782 128.141C451.795 128.389 450.836 128.851 450.836 130.235ZM471.722 134.743H467.889V117.102H471.403V121.858H471.651C472.184 119.018 474.101 116.747 477.721 116.747C481.732 116.747 483.472 119.622 483.472 122.958V125.266H479.673V123.704C479.673 121.184 478.609 120.012 475.982 120.012C472.965 120.012 471.722 121.681 471.722 124.84V134.743Z" fill="white"/>
<path d="M515.222 134.743H496.196V110.961H515.222V114.404H500.03V121.077H514.69V124.485H500.03V131.3H515.222V134.743ZM522.041 134.743H518.208V117.102H521.722V122.568H521.97C522.503 119.586 524.846 116.747 529.318 116.747C534.217 116.747 536.63 120.048 536.63 124.13V134.743H532.797V125.159C532.797 121.858 531.306 120.19 527.65 120.19C523.781 120.19 522.041 122.178 522.041 126.011V134.743ZM548.92 135.098C543.134 135.098 539.336 131.832 539.336 125.94C539.336 120.438 543.099 116.747 548.849 116.747C554.316 116.747 558.043 119.764 558.043 125.124C558.043 125.763 558.007 126.26 557.901 126.792H542.921C543.063 130.2 544.732 132.01 548.814 132.01C552.505 132.01 554.032 130.803 554.032 128.709V128.425H557.865V128.744C557.865 132.507 554.174 135.098 548.92 135.098ZM548.778 119.764C544.874 119.764 543.17 121.503 542.957 124.662H554.422V124.591C554.422 121.326 552.541 119.764 548.778 119.764ZM564.748 134.743H560.914V117.102H564.428V121.858H564.677C565.209 119.018 567.126 116.747 570.746 116.747C574.757 116.747 576.497 119.622 576.497 122.958V125.266H572.699V123.704C572.699 121.184 571.634 120.012 569.007 120.012C565.99 120.012 564.748 121.681 564.748 124.84V134.743ZM586.572 133.146C581.318 133.146 578.195 129.845 578.195 124.946C578.195 120.048 581.46 116.747 586.82 116.747C590.512 116.747 593.281 118.415 593.919 121.503H594.132V117.102H597.647V132.684C597.647 138.612 593.955 141.132 588.169 141.132C582.951 141.132 579.331 138.683 579.331 134.424H583.129C583.129 136.979 584.619 137.938 588.382 137.938C592.393 137.938 593.848 136.837 593.848 132.897V128.567H593.6C592.961 131.229 590.583 133.146 586.572 133.146ZM582.064 124.946C582.064 128.567 584.194 129.845 587.814 129.845C591.719 129.845 593.848 128.212 593.848 125.088V124.591C593.848 121.61 591.648 120.083 587.921 120.083C584.229 120.083 582.064 121.326 582.064 124.946ZM604.033 140.777H601.513V137.299H604.956C606.518 137.299 607.157 136.873 607.689 135.666L608.115 134.743L599.419 117.102H603.714L608.222 126.473L609.961 130.697H610.245L611.913 126.437L616.066 117.102H620.29L611.097 136.66C609.642 139.819 607.654 140.777 604.033 140.777Z" fill="white"/>
<path d="M7.29796 43.3526C17.8825 49.4814 27.7407 55.0033 37.8085 60.8649C39.7191 57.692 41.1926 55.1407 43.2729 51.863C32.7932 45.904 23.1373 40.1399 12.7948 34.2134C10.8843 37.3863 9.2085 40.1797 7.29796 43.3526Z" fill="url(#paint0_linear_3_17)"/>
<path d="M108.839 51.3842C110.968 54.7891 112.454 57.3333 114.346 60.3598C124.66 54.3839 134.459 48.6777 144.773 42.7019C142.847 39.5382 141.362 36.994 139.507 33.5228C128.71 39.9056 119.016 45.4415 108.839 51.3842Z" fill="url(#paint1_linear_3_17)"/>
<path d="M91.992 38.8119C95.2269 40.8042 97.8752 42.3799 101.013 44.2695C107.008 33.9665 112.695 23.9538 118.689 13.6508C115.255 11.6526 112.601 10.2764 109.559 8.48942C103.462 18.8892 97.884 28.6057 91.992 38.8119Z" fill="url(#paint2_linear_3_17)"/>
<path d="M109.258 101.351C119.868 107.355 129.719 112.889 139.642 118.73C141.557 115.56 143.001 113.147 144.948 109.84C134.645 103.763 124.964 98.1249 114.491 92.1534C112.544 95.4612 111.035 98.148 109.258 101.351Z" fill="url(#paint3_linear_3_17)"/>
<path d="M33.2917 13.6954C39.4219 24.0759 45.1401 34.0706 51.1673 44.3547C54.4923 42.2492 57.1357 40.6652 60.0684 38.7722C54.0412 28.4881 48.4325 18.7893 42.4054 8.50519C39.1702 10.3083 36.6233 11.7893 33.2917 13.6954Z" fill="url(#paint4_linear_3_17)"/>
<path d="M92.4638 114.884C98.5384 125.297 104.3 135.22 110.17 145.439C113.706 143.346 116.158 141.782 119.004 140.007C113.032 129.691 107.577 120.059 101.502 109.646C98.1608 111.534 95.606 113.002 92.4638 114.884Z" fill="url(#paint5_linear_3_17)"/>
<path d="M6.99427 110.333C9.05196 113.467 10.5993 116.288 12.4539 119.181C22.9149 113.189 32.6185 107.669 42.805 101.743C40.9888 98.4061 39.5732 96.1339 37.554 92.5554C27.1259 98.6844 17.318 104.375 6.99427 110.333Z" fill="url(#paint6_linear_3_17)"/>
<path d="M32.8253 140.208C36.4678 142.196 39.0257 143.658 42.0798 145.232C48.0297 134.903 53.6678 125.065 59.6177 114.736C56.3691 112.958 53.8112 111.496 50.5627 109.717C44.5105 120.143 38.7752 129.879 32.8253 140.208Z" fill="url(#paint7_linear_3_17)"/>
<path d="M71.6733 118.3V153.151C75.0597 153.01 77.7406 152.869 80.7036 152.728V118.3H71.6733Z" fill="url(#paint8_linear_3_17)"/>
<path d="M151.799 80.7681H117.512V71.3145H151.799V80.7681Z" fill="url(#paint9_linear_3_17)"/>
<path d="M34.8512 81.1611H0V71.9898H34.8512V81.1611Z" fill="url(#paint10_linear_3_17)"/>
<path d="M80.5874 35.7666H71.416V1.33869H80.5874V35.7666Z" fill="url(#paint11_linear_3_17)"/>
<defs>
<linearGradient id="paint0_linear_3_17" x1="25.2982" y1="40.2722" x2="25.2984" y2="181.371" gradientUnits="userSpaceOnUse">
<stop stop-color="#F6BD70"/>
<stop offset="0.01" stop-color="#F6BD70"/>
<stop offset="1" stop-color="#4C4C98"/>
</linearGradient>
<linearGradient id="paint1_linear_3_17" x1="126.787" y1="40.2725" x2="126.787" y2="181.371" gradientUnits="userSpaceOnUse">
<stop stop-color="#F6BD70"/>
<stop offset="0.01" stop-color="#F6BD70"/>
<stop offset="1" stop-color="#4C4C98"/>
</linearGradient>
<linearGradient id="paint2_linear_3_17" x1="105.3" y1="40.2721" x2="105.301" y2="181.37" gradientUnits="userSpaceOnUse">
<stop stop-color="#F6BD70"/>
<stop offset="0.01" stop-color="#F6BD70"/>
<stop offset="1" stop-color="#4C4C98"/>
</linearGradient>
<linearGradient id="paint3_linear_3_17" x1="127.151" y1="40.2726" x2="127.151" y2="181.371" gradientUnits="userSpaceOnUse">
<stop stop-color="#F6BD70"/>
<stop offset="0.01" stop-color="#F6BD70"/>
<stop offset="1" stop-color="#4C4C98"/>
</linearGradient>
<linearGradient id="paint4_linear_3_17" x1="46.7156" y1="40.2723" x2="46.7157" y2="181.371" gradientUnits="userSpaceOnUse">
<stop stop-color="#F6BD70"/>
<stop offset="0.01" stop-color="#F6BD70"/>
<stop offset="1" stop-color="#4C4C98"/>
</linearGradient>
<linearGradient id="paint5_linear_3_17" x1="105.729" y1="40.2727" x2="105.729" y2="181.371" gradientUnits="userSpaceOnUse">
<stop stop-color="#F6BD70"/>
<stop offset="0.01" stop-color="#F6BD70"/>
<stop offset="1" stop-color="#4C4C98"/>
</linearGradient>
<linearGradient id="paint6_linear_3_17" x1="24.9442" y1="40.2727" x2="24.9442" y2="181.371" gradientUnits="userSpaceOnUse">
<stop stop-color="#F6BD70"/>
<stop offset="0.01" stop-color="#F6BD70"/>
<stop offset="1" stop-color="#4C4C98"/>
</linearGradient>
<linearGradient id="paint7_linear_3_17" x1="46.2231" y1="40.2726" x2="46.2233" y2="181.371" gradientUnits="userSpaceOnUse">
<stop stop-color="#F6BD70"/>
<stop offset="0.01" stop-color="#F6BD70"/>
<stop offset="1" stop-color="#4C4C98"/>
</linearGradient>
<linearGradient id="paint8_linear_3_17" x1="76.1887" y1="40.2726" x2="76.1887" y2="181.371" gradientUnits="userSpaceOnUse">
<stop stop-color="#F6BD70"/>
<stop offset="0.01" stop-color="#F6BD70"/>
<stop offset="1" stop-color="#4C4C98"/>
</linearGradient>
<linearGradient id="paint9_linear_3_17" x1="134.585" y1="40.2727" x2="134.585" y2="181.371" gradientUnits="userSpaceOnUse">
<stop stop-color="#F6BD70"/>
<stop offset="0.01" stop-color="#F6BD70"/>
<stop offset="1" stop-color="#4C4C98"/>
</linearGradient>
<linearGradient id="paint10_linear_3_17" x1="17.4661" y1="40.2728" x2="17.4661" y2="181.371" gradientUnits="userSpaceOnUse">
<stop stop-color="#F6BD70"/>
<stop offset="0.01" stop-color="#F6BD70"/>
<stop offset="1" stop-color="#4C4C98"/>
</linearGradient>
<linearGradient id="paint11_linear_3_17" x1="75.9399" y1="40.273" x2="75.9399" y2="181.371" gradientUnits="userSpaceOnUse">
<stop stop-color="#F6BD70"/>
<stop offset="0.01" stop-color="#F6BD70"/>
<stop offset="1" stop-color="#4C4C98"/>
</linearGradient>
</defs>
</svg>
