<svg width="21" height="21" viewBox="0 0 21 21" fill="none" xmlns="http://www.w3.org/2000/svg">
<path id="Vector" d="M15.9893 20.675H4.36071C1.95651 20.675 0 18.7184 0 16.3142V4.68567C0 2.28146 1.95651 0.324951 4.36071 0.324951H11.6286C12.0141 0.324951 12.3838 0.478095 12.6564 0.750693C12.929 1.02329 13.0821 1.39301 13.0821 1.77852C13.0821 2.16403 12.929 2.53376 12.6564 2.80635C12.3838 3.07895 12.0141 3.23209 11.6286 3.23209H4.36071C3.55834 3.23209 2.90714 3.88475 2.90714 4.68567V16.3142C2.90714 17.1152 3.55834 17.7678 4.36071 17.7678H15.9893C16.7917 17.7678 17.4429 17.1152 17.4429 16.3142V11.9535C17.4429 11.568 17.596 11.1983 17.8686 10.9257C18.1412 10.6531 18.5109 10.5 18.8964 10.5C19.2819 10.5 19.6517 10.6531 19.9243 10.9257C20.1969 11.1983 20.35 11.568 20.35 11.9535V16.3142C20.35 18.7184 18.3935 20.675 15.9893 20.675ZM11.8699 14.6179C11.3611 14.6179 10.8684 14.4159 10.5021 14.0496L6.62393 10.1729C6.27509 9.80624 6.08343 9.31773 6.08987 8.81168C6.09631 8.30564 6.30033 7.82216 6.65838 7.4645C7.01642 7.10683 7.50012 6.90332 8.00617 6.89742C8.51222 6.89152 9.00053 7.08369 9.36681 7.43292L11.4251 9.49263L16.4762 1.56339C16.5956 1.33332 16.7599 1.12951 16.9594 0.964021C17.1589 0.798532 17.3896 0.674722 17.6377 0.599909C17.8859 0.525096 18.1466 0.500799 18.4043 0.528455C18.662 0.556111 18.9116 0.635158 19.1382 0.760924C19.3649 0.886689 19.564 1.05662 19.7239 1.26067C19.8837 1.46472 20.001 1.69875 20.0689 1.94891C20.1367 2.19908 20.1537 2.46031 20.1189 2.71716C20.084 2.97401 19.998 3.22127 19.866 3.44432L13.5662 13.6193C13.4207 13.8816 13.2163 14.1064 12.9691 14.2762C12.7219 14.4459 12.4387 14.556 12.1417 14.5976L11.8699 14.6179Z" fill="#36689E"/>
</svg>
